<svg width="20" height="20" viewBox="0 0 20 20" fill="none" xmlns="http://www.w3.org/2000/svg">
<rect width="20" height="20" rx="10" fill="#999999"/>
<path d="M11.094 12.346H8.862V8.818C9.066 8.866 9.282 8.89 9.51 8.89C10.278 8.89 10.836 8.71 11.184 8.35C11.544 7.978 11.724 7.558 11.724 7.09C11.724 6.682 11.598 6.346 11.346 6.082C11.106 5.806 10.782 5.668 10.374 5.668C10.086 5.668 9.846 5.728 9.654 5.848C9.462 5.968 9.33 6.124 9.258 6.316C9.186 6.508 9.138 6.658 9.114 6.766C9.102 6.862 9.096 6.958 9.096 7.054V7.162H6.756V7.054C6.756 6.01 7.104 5.194 7.8 4.606C8.496 4.018 9.366 3.724 10.41 3.724C11.49 3.724 12.366 4.03 13.038 4.642C13.722 5.254 14.064 6.07 14.064 7.09C14.064 7.954 13.8 8.698 13.272 9.322C12.744 9.934 12.018 10.312 11.094 10.456V12.346ZM8.97 15.838C8.706 15.562 8.574 15.226 8.574 14.83C8.574 14.434 8.706 14.104 8.97 13.84C9.246 13.564 9.582 13.426 9.978 13.426C10.374 13.426 10.704 13.564 10.968 13.84C11.244 14.104 11.382 14.434 11.382 14.83C11.382 15.226 11.244 15.562 10.968 15.838C10.704 16.102 10.374 16.234 9.978 16.234C9.582 16.234 9.246 16.102 8.97 15.838Z" fill="white"/>
</svg>
