<svg width="22" height="20" viewBox="0 0 22 20" fill="none" xmlns="http://www.w3.org/2000/svg">
<g clip-path="url(#clip0_671_1757)">
<path fill-rule="evenodd" clip-rule="evenodd" d="M10.9998 2.19995C10.5998 2.19995 10.1998 2.19995 9.7998 2.29995L11.3998 4.69995C13.9998 4.89995 15.9998 6.99995 15.9998 9.69995C15.9998 10.3 15.8998 10.8 15.6998 11.3L17.9998 14.8C19.7998 13.5 21.1998 11.7 21.9998 9.59995C20.2998 5.29995 15.9998 2.19995 10.9998 2.19995Z" fill="#B1B1B1"/>
<path d="M17.5 17.9L16.2 15.9L14.4 13.2L13.3 11.5L10.2 6.7L9.1 5L7.6 2.7L5.8 0L5 0.5L3.3 1.6L4.8 3.9C2.6 5.3 0.9 7.3 0 9.7C1.7 14.1 6 17.2 11 17.2C11.8 17.2 12.6 17.1 13.3 17L15 19.6L17.5 17.9ZM11 14.7C8.2 14.7 6 12.5 6 9.7C6 8.7 6.3 7.8 6.8 7L8.1 9C8 9.2 8 9.4 8 9.7C8 11.2 9.1 12.4 10.5 12.7L11.8 14.7C11.5 14.7 11.3 14.7 11 14.7Z" fill="#B1B1B1"/>
</g>
<defs>
<clipPath id="clip0_671_1757">
<rect width="22" height="19.6" fill="white"/>
</clipPath>
</defs>
</svg>
